<svg xmlns="http://www.w3.org/2000/svg" width="375" height="812" viewBox="0 0 375 812" style="--focus:#1fb39a">
<defs><style>@font-face{font-family:"Russo One";src:url(fonts/russo.ttf)}@font-face{font-family:"Golos Text";font-weight:400 700;src:url(fonts/golos.ttf)}.h{font-family:"Russo One"}.b{font-family:"Golos Text";font-weight:400}.s{font-family:"Golos Text";font-weight:600}[role=button]:focus-visible,[role=tab]:focus-visible{outline:3px solid var(--focus);outline-offset:3px}</style><pattern id="dots" width="16" height="16" patternUnits="userSpaceOnUse"><circle cx="2" cy="2" r="1.2" fill="#202326"/></pattern><linearGradient id="sky" x1="0" y1="0" x2="0" y2="1"><stop offset="0" stop-color="#111314"/><stop offset="1" stop-color="#0b0b0c"/></linearGradient></defs>
<rect width="375" height="812" fill="#0b0b0c"/><rect width="375" height="220" fill="url(#sky)"/><rect width="375" height="812" fill="url(#dots)"/>
<g role="button" aria-label="back" tabindex="0">
<circle cx="40" cy="40" r="22" transform="translate(1.5 3)" fill="#585e67" stroke="#585e67" stroke-width="10" stroke-linejoin="round"/>
<circle cx="40" cy="40" r="22" fill="#111314" stroke="#202326" stroke-width="7" stroke-linejoin="round" paint-order="stroke"/>
<g transform="translate(29.0 29.0) scale(0.917)" fill="none" stroke="#e7e8eb" stroke-width="1.5" vector-effect="non-scaling-stroke" stroke-linecap="round" stroke-linejoin="round"><path vector-effect="non-scaling-stroke" d="M15 5 L8 12 L15 19"/></g>
</g>
<text id="t63" x="76" y="49" class="h" font-size="22" fill="#e7e8eb" text-anchor="start" >match</text>
<g role="img" aria-label="place phase: night">
<g transform="rotate(0 336 40)">
<circle cx="336" cy="40" r="16" fill="#8550c5" stroke="#202326" stroke-width="7" stroke-linejoin="round" paint-order="stroke"/>
<g transform="translate(327.6 31.6) scale(0.700)" fill="none" stroke="#f3ecfd" stroke-width="1.5" vector-effect="non-scaling-stroke" stroke-linecap="round" stroke-linejoin="round"><path vector-effect="non-scaling-stroke" d="M19 15 A8 8 0 1 1 10 4 A6.5 6.5 0 0 0 19 15Z"/></g>
</g>
</g>
<g transform="rotate(-8 149 188)"><circle cx="151" cy="194" r="56" fill="#000000" opacity=".18"/><circle cx="149" cy="188" r="52" fill="#1fb39a" stroke="#ffffff" stroke-width="8" paint-order="stroke"/>
<g transform="translate(123.0 162.0) scale(2.167)" fill="none" stroke="#04201c" stroke-width="1.5" vector-effect="non-scaling-stroke" stroke-linecap="round" stroke-linejoin="round"><path vector-effect="non-scaling-stroke" d="M12 20 C5.5 15.5 3 12 3 8.6 A4.6 4.6 0 0 1 12 6.8 A4.6 4.6 0 0 1 21 8.6 C21 12 18.5 15.5 12 20Z"/></g>
</g>
<g transform="rotate(8 225 188)"><circle cx="227" cy="194" r="56" fill="#000000" opacity=".18"/><circle cx="225" cy="188" r="52" fill="#cc2f27" stroke="#ffffff" stroke-width="8" paint-order="stroke"/>
<g transform="translate(199.0 162.0) scale(2.167)" fill="none" stroke="#fdeceb" stroke-width="1.5" vector-effect="non-scaling-stroke" stroke-linecap="round" stroke-linejoin="round"><path vector-effect="non-scaling-stroke" d="M12 20 C5.5 15.5 3 12 3 8.6 A4.6 4.6 0 0 1 12 6.8 A4.6 4.6 0 0 1 21 8.6 C21 12 18.5 15.5 12 20Z"/></g>
</g>
<text id="t64" x="187" y="288" class="h" font-size="28" fill="#e7e8eb" text-anchor="middle" >Boris, 31</text>
<g transform="rotate(0 187.5 391.0)">
<rect x="16" y="318" width="343" height="146" rx="18" transform="translate(1.5 3)" fill="#585e67" stroke="#585e67" stroke-width="10" stroke-linejoin="round"/>
<rect x="16" y="318" width="343" height="146" rx="18" fill="#111314" stroke="#202326" stroke-width="7" stroke-linejoin="round" paint-order="stroke"/>
</g>
<g transform="rotate(0 187.5 391.0)">
<text id="t65" x="36" y="362" class="s" font-size="22" fill="#e7e8eb" text-anchor="start" >walking by the river,</text>
<text id="t66" x="36" y="392" class="s" font-size="22" fill="#e7e8eb" text-anchor="start" >anyone near</text>
<g transform="rotate(-8 54 436)">
<circle cx="54" cy="436" r="17" fill="#1fb39a" stroke="#202326" stroke-width="7" stroke-linejoin="round" paint-order="stroke"/>
<g transform="translate(45.1 427.1) scale(0.744)" fill="none" stroke="#04201c" stroke-width="1.5" vector-effect="non-scaling-stroke" stroke-linecap="round" stroke-linejoin="round"><path vector-effect="non-scaling-stroke" d="M12 20 C5.5 15.5 3 12 3 8.6 A4.6 4.6 0 0 1 12 6.8 A4.6 4.6 0 0 1 21 8.6 C21 12 18.5 15.5 12 20Z"/></g>
</g>
<text id="t67" x="81" y="442" class="s" font-size="16" fill="#e7e8eb" text-anchor="start" font-variant-numeric="tabular-nums">1</text>
</g>
<g transform="rotate(0 187.5 536.0)">
<rect x="16" y="478" width="343" height="116" rx="18" transform="translate(1.5 3)" fill="#585e67" stroke="#585e67" stroke-width="10" stroke-linejoin="round"/>
<rect x="16" y="478" width="343" height="116" rx="18" fill="#111314" stroke="#202326" stroke-width="7" stroke-linejoin="round" paint-order="stroke"/>
</g>
<g transform="rotate(0 187.5 536.0)">
<text id="t68" x="36" y="522" class="s" font-size="22" fill="#e7e8eb" text-anchor="start" >river walk, who's in</text>
<g transform="rotate(-8 54 566)">
<circle cx="54" cy="566" r="17" fill="#1fb39a" stroke="#202326" stroke-width="7" stroke-linejoin="round" paint-order="stroke"/>
<g transform="translate(45.1 557.1) scale(0.744)" fill="none" stroke="#04201c" stroke-width="1.5" vector-effect="non-scaling-stroke" stroke-linecap="round" stroke-linejoin="round"><path vector-effect="non-scaling-stroke" d="M12 20 C5.5 15.5 3 12 3 8.6 A4.6 4.6 0 0 1 12 6.8 A4.6 4.6 0 0 1 21 8.6 C21 12 18.5 15.5 12 20Z"/></g>
</g>
<text id="t69" x="81" y="572" class="s" font-size="16" fill="#e7e8eb" text-anchor="start" font-variant-numeric="tabular-nums">1</text>
</g>
<g role="button" aria-label="hint" tabindex="0">
<circle cx="335" cy="700" r="16" fill="#111314" stroke="#585e67" stroke-width="1.5"/>
<g transform="translate(324.0 689.0) scale(0.917)" fill="none" stroke="#e7e8eb" stroke-width="1.5" vector-effect="non-scaling-stroke" stroke-linecap="round" stroke-linejoin="round"><circle vector-effect="non-scaling-stroke" cx="12" cy="12" r="9"/><path vector-effect="non-scaling-stroke" d="M12 11 V17"/><circle vector-effect="non-scaling-stroke" cx="12" cy="7.6" r=".6"/></g>
</g>
<g role="button" aria-label="talk" tabindex="0">
<rect x="16" y="672" width="279" height="56" rx="28.0" transform="translate(1.5 3)" fill="#585e67" stroke="#585e67" stroke-width="10" stroke-linejoin="round"/>
<rect x="16" y="672" width="279" height="56" rx="28.0" fill="#1fb39a" stroke="#202326" stroke-width="7" stroke-linejoin="round" paint-order="stroke"/>
<g transform="translate(142.5 687.0) scale(1.083)" fill="none" stroke="#04201c" stroke-width="1.5" vector-effect="non-scaling-stroke" stroke-linecap="round" stroke-linejoin="round"><path vector-effect="non-scaling-stroke" d="M4 5 H20 V16 H10 L5 20 V16 H4Z"/></g>
</g>
<g role="button" aria-label="not now" tabindex="0">
<rect x="16" y="740" width="343" height="56" rx="28.0" transform="translate(1.5 3)" fill="#585e67" stroke="#585e67" stroke-width="10" stroke-linejoin="round"/>
<rect x="16" y="740" width="343" height="56" rx="28.0" fill="#111314" stroke="#202326" stroke-width="7" stroke-linejoin="round" paint-order="stroke"/>
<g transform="translate(174.5 755.0) scale(1.083)" fill="none" stroke="#e7e8eb" stroke-width="1.5" vector-effect="non-scaling-stroke" stroke-linecap="round" stroke-linejoin="round"><path vector-effect="non-scaling-stroke" d="M6 3 H18 C18 9 13 10 12 12 C11 10 6 9 6 3Z"/><path vector-effect="non-scaling-stroke" d="M6 21 H18 C18 15 13 14 12 12 C11 14 6 15 6 21Z"/></g>
</g>
</svg>