<svg xmlns="http://www.w3.org/2000/svg" width="1440" height="1800" viewBox="0 0 1440 1800" font-family="Inter, system-ui, sans-serif">
  <title>xor.ad panel — how a control behaves</title>
  <desc>
    Redrawn from panel/src/App.css. Three laws, the matrix of variants against
    states, what the keyboard does. Hover changes the fill and nothing else; the
    shadow is the height, and only a press spends it.
  </desc>

  <style>
    @font-face { font-family: "Inter"; font-weight: 400 700;
      src: url(/fonts/UcC73FwrK3iLTeHuS_nVMrMxCp50SjIa1ZL7.woff2) format("woff2"); }
    @font-face { font-family: "Unbounded"; font-weight: 700;
      src: url(/fonts/Yq6W-LOTXCb04q32xlpwu8Zf.woff2) format("woff2"); }
    .display { font-family: "Unbounded", "Inter", sans-serif; font-weight: 700; fill: #14140f; }
    .body  { font-size: 13px; font-weight: 500; fill: #14140f; }
    .small { font-size: 11px; font-weight: 500; fill: #14140f; }
    .muted { font-size: 12px; font-weight: 500; fill: #5b5b55; }
    .micro { font-size: 10px; font-weight: 700; fill: #5b5b55; letter-spacing: 0.7px; }
    .mono  { font-family: ui-monospace, Menlo, monospace; font-size: 10px; fill: #5b5b55; }
    .warn  { font-size: 11px; font-weight: 600; fill: #8a5200; }
  </style>

  <rect width="1440" height="1800" fill="#f2f2f0"/>

  <!-- ========================================================== MASTHEAD === -->
  <g transform="translate(48,40)">
    <rect x="0" y="0" width="1344" height="96" rx="6" fill="#14140f"/>
    <text x="24" y="42" class="display" font-size="24" style="fill:#f2f2f0">How a control behaves<tspan fill="#7d9bff">.</tspan></text>
    <text x="24" y="70" class="body" style="fill:#f2f2f0;opacity:0.75">
      Redrawn from App.css. Hover firms the fill; the depth never changes; a press travels its own distance and lands on its shadow.
    </text>
  </g>

  <!-- ========================================================= THREE LAWS == -->
  <g transform="translate(48,168)">
    <text x="0" y="16" class="display" font-size="17">Three laws</text>
    <line x1="0" y1="26" x2="1344" y2="26" stroke="#14140f" stroke-width="2"/>
  </g>

  <g transform="translate(48,206)">
    <rect x="0" y="0" width="432" height="118" rx="6" fill="#ffffff" stroke="#d9d9d4" stroke-width="1"/>
    <text x="20" y="26" class="micro">1 · NOTHING MOVES BUT A PRESS</text>
    <g transform="translate(24,44)">
      <rect x="4" y="4" width="80" height="30" rx="6" fill="#14140f"/>
      <rect x="0" y="0" width="80" height="30" rx="6" fill="#ffffff" stroke="#14140f" stroke-width="2"/>
      <text x="40" y="20" class="small" text-anchor="middle">rest</text>
      <g transform="translate(104,0)">
        <rect x="4" y="4" width="80" height="30" rx="6" fill="#14140f"/>
        <rect x="0" y="0" width="80" height="30" rx="6" fill="#ebebe7" stroke="#14140f" stroke-width="2"/>
        <text x="40" y="20" class="small" text-anchor="middle">hover</text>
      </g>
      <g transform="translate(212,4)">
        <rect x="0" y="0" width="80" height="30" rx="6" fill="#ffffff" stroke="#14140f" stroke-width="2"/>
        <text x="40" y="20" class="small" text-anchor="middle">press</text>
      </g>
    </g>
    <text x="24" y="104" class="mono">the gap never changes; the fill firms up. Only :active travels its 4</text>
  </g>

  <g transform="translate(504,206)">
    <rect x="0" y="0" width="432" height="118" rx="6" fill="#ffffff" stroke="#d9d9d4" stroke-width="1"/>
    <text x="20" y="26" class="micro">2 · FOCUS IS THE FRAME, ONE LINE</text>
    <g transform="translate(24,44)">
      <rect x="4" y="4" width="80" height="30" rx="6" fill="#14140f"/>
      <rect x="0" y="0" width="80" height="30" rx="6" fill="#ffffff" stroke="#3355dd" stroke-width="2"/>
      <text x="40" y="20" class="small" text-anchor="middle">button</text>
      <g transform="translate(104,0)">
        <rect x="0" y="0" width="110" height="30" rx="6" fill="#ffffff" stroke="#3355dd" stroke-width="2"/>
        <text x="12" y="20" class="small">field<tspan fill="#3355dd">|</tspan></text>
      </g>
      <g transform="translate(238,6)">
        <rect x="0" y="0" width="18" height="18" rx="3" fill="#ffffff" stroke="#3355dd" stroke-width="2"/>
      </g>
    </g>
    <text x="24" y="104" class="mono">no ring, no outline. 3.07:1 against the resting frame — over the 3:1 needed</text>
  </g>

  <g transform="translate(960,206)">
    <rect x="0" y="0" width="432" height="118" rx="6" fill="#ffffff" stroke="#d9d9d4" stroke-width="1"/>
    <text x="20" y="26" class="micro">3 · WHAT PERSISTS FILLS, AND KEEPS ITS PLACE</text>
    <g transform="translate(24,44)">
      <rect x="4" y="4" width="60" height="30" rx="6" fill="#14140f"/>
      <rect x="0" y="0" width="60" height="30" rx="6" fill="#ffffff" stroke="#14140f" stroke-width="2"/>
      <text x="30" y="20" class="small" text-anchor="middle">1h</text>
      <g transform="translate(72,0)">
        <rect x="0" y="0" width="60" height="30" rx="6" fill="#14140f" stroke="#14140f" stroke-width="2"/>
        <text x="30" y="20" class="small" style="fill:#f2f2f0" text-anchor="middle">24h</text>
      </g>
      <g transform="translate(144,0)">
        <rect x="4" y="4" width="60" height="30" rx="6" fill="#14140f"/>
        <rect x="0" y="0" width="60" height="30" rx="6" fill="#ffffff" stroke="#14140f" stroke-width="2"/>
        <text x="30" y="20" class="small" text-anchor="middle">7d</text>
      </g>
      <line x1="-8" y1="34" x2="220" y2="34" stroke="#1a7f37" stroke-width="1" stroke-dasharray="3 3"/>
    </g>
    <text x="24" y="104" class="mono">one baseline. No shadow, because it is in the row rather than on it</text>
  </g>

  <!-- =========================================================== MATRIX ==== -->
  <g transform="translate(48,368)">
    <text x="0" y="16" class="display" font-size="17">Variants against states</text>
    <line x1="0" y1="26" x2="1344" y2="26" stroke="#14140f" stroke-width="2"/>
    <text x="0" y="48" class="muted">Three variants exist in the CSS — the plain one, .button-primary and .button-danger. Nothing else does.</text>
  </g>

  <g transform="translate(48,436)">
    <rect x="0" y="0" width="1344" height="330" rx="6" fill="#ffffff" stroke="#d9d9d4" stroke-width="1"/>
    <rect x="1" y="1" width="1342" height="30" rx="5" fill="#f7f7f5"/>
    <text x="160" y="21" class="micro">REST</text>
    <text x="360" y="21" class="micro">HOVER · FILL ONLY</text>
    <text x="560" y="21" class="micro">PRESS</text>
    <text x="760" y="21" class="micro">FOCUS</text>
    <text x="960" y="21" class="micro">HELD · aria-pressed</text>
    <text x="1180" y="21" class="micro">DISABLED</text>

    <!-- default -->
    <text x="20" y="70" class="body" font-weight="700">default</text>
    <text x="20" y="88" class="mono">no class</text>
    <g transform="translate(160,52)">
      <rect x="4" y="4" width="96" height="32" rx="6" fill="#14140f"/>
      <rect x="0" y="0" width="96" height="32" rx="6" fill="#ffffff" stroke="#14140f" stroke-width="2"/>
      <text x="48" y="21" class="small" text-anchor="middle">Refresh</text>
    </g>
    <g transform="translate(360,52)">
      <rect x="4" y="4" width="96" height="32" rx="6" fill="#14140f"/>
      <rect x="0" y="0" width="96" height="32" rx="6" fill="#ebebe7" stroke="#14140f" stroke-width="2"/>
      <text x="48" y="21" class="small" text-anchor="middle">Refresh</text>
    </g>
    <g transform="translate(560,52)">
      <rect x="0" y="0" width="96" height="32" rx="6" fill="none" stroke="#a8a8a2" stroke-width="1" stroke-dasharray="3 3"/>
      <g transform="translate(4,4)">
        <rect x="0" y="0" width="96" height="32" rx="6" fill="#ffffff" stroke="#14140f" stroke-width="2"/>
        <text x="48" y="21" class="small" text-anchor="middle">Refresh</text>
      </g>
    </g>
    <g transform="translate(760,52)">
      <rect x="4" y="4" width="96" height="32" rx="6" fill="#14140f"/>
      <rect x="0" y="0" width="96" height="32" rx="6" fill="#ffffff" stroke="#3355dd" stroke-width="2"/>
      <text x="48" y="21" class="small" text-anchor="middle">Refresh</text>
    </g>
    <g transform="translate(960,52)">
      <rect x="0" y="0" width="96" height="32" rx="6" fill="#14140f" stroke="#14140f" stroke-width="2"/>
      <text x="48" y="21" class="small" style="fill:#f2f2f0" text-anchor="middle">Refresh</text>
      <g transform="translate(120,0)">
        <rect x="0" y="0" width="96" height="32" rx="6" fill="#14140f" stroke="#f2f2f0" stroke-width="2"/>
        <text x="48" y="21" class="small" style="fill:#f2f2f0" text-anchor="middle">+ focus</text>
      </g>
    </g>
    <g transform="translate(1180,52)">
      <rect x="0" y="0" width="96" height="32" rx="6" fill="#ffffff" stroke="#d9d9d4" stroke-width="2"/>
      <text x="48" y="21" class="small" fill="#5b5b55" text-anchor="middle">Refresh</text>
    </g>
    <line x1="1" y1="104" x2="1343" y2="104" stroke="#d9d9d4" stroke-width="1"/>

    <!-- primary -->
    <text x="20" y="146" class="body" font-weight="700">primary</text>
    <text x="20" y="164" class="mono">.button-primary</text>
    <g transform="translate(160,128)">
      <rect x="4" y="4" width="96" height="32" rx="6" fill="#14140f"/>
      <rect x="0" y="0" width="96" height="32" rx="6" fill="#3355dd" stroke="#14140f" stroke-width="2"/>
      <text x="48" y="21" class="small" style="fill:#ffffff" text-anchor="middle">Mint key</text>
    </g>
    <g transform="translate(360,128)">
      <rect x="4" y="4" width="96" height="32" rx="6" fill="#14140f"/>
      <rect x="0" y="0" width="96" height="32" rx="6" fill="#2743bb" stroke="#14140f" stroke-width="2"/>
      <text x="48" y="21" class="small" style="fill:#ffffff" text-anchor="middle">Mint key</text>
    </g>
    <g transform="translate(560,128)">
      <rect x="0" y="0" width="96" height="32" rx="6" fill="none" stroke="#a8a8a2" stroke-width="1" stroke-dasharray="3 3"/>
      <g transform="translate(4,4)">
        <rect x="0" y="0" width="96" height="32" rx="6" fill="#3355dd" stroke="#14140f" stroke-width="2"/>
        <text x="48" y="21" class="small" style="fill:#ffffff" text-anchor="middle">Mint key</text>
      </g>
    </g>
    <g transform="translate(760,128)">
      <rect x="4" y="4" width="96" height="32" rx="6" fill="#14140f"/>
      <rect x="0" y="0" width="96" height="32" rx="6" fill="#3355dd" stroke="#ffffff" stroke-width="2"/>
      <text x="48" y="21" class="small" style="fill:#ffffff" text-anchor="middle">Mint key</text>
      <text x="0" y="46" class="mono">frame = --accent-ink</text>
    </g>
    <text x="960" y="146" class="mono">never held — a primary does a</text>
    <text x="960" y="160" class="mono">thing, it is not a mode</text>
    <g transform="translate(1180,128)">
      <rect x="0" y="0" width="96" height="32" rx="6" fill="#ffffff" stroke="#d9d9d4" stroke-width="2"/>
      <text x="48" y="21" class="small" fill="#5b5b55" text-anchor="middle">Mint key</text>
    </g>
    <line x1="1" y1="180" x2="1343" y2="180" stroke="#d9d9d4" stroke-width="1"/>

    <!-- danger -->
    <text x="20" y="222" class="body" font-weight="700">danger</text>
    <text x="20" y="240" class="mono">.button-danger</text>
    <g transform="translate(160,204)">
      <rect x="4" y="4" width="96" height="32" rx="6" fill="#14140f"/>
      <rect x="0" y="0" width="96" height="32" rx="6" fill="#ffffff" stroke="#b3261e" stroke-width="2"/>
      <text x="48" y="21" class="small" fill="#b3261e" text-anchor="middle">Revoke…</text>
    </g>
    <g transform="translate(360,204)">
      <rect x="4" y="4" width="96" height="32" rx="6" fill="#14140f"/>
      <rect x="0" y="0" width="96" height="32" rx="6" fill="#ebebe7" stroke="#b3261e" stroke-width="2"/>
      <text x="48" y="21" class="small" fill="#b3261e" text-anchor="middle">Revoke…</text>
    </g>
    <g transform="translate(560,204)">
      <rect x="0" y="0" width="96" height="32" rx="6" fill="none" stroke="#a8a8a2" stroke-width="1" stroke-dasharray="3 3"/>
      <g transform="translate(4,4)">
        <rect x="0" y="0" width="96" height="32" rx="6" fill="#ffffff" stroke="#b3261e" stroke-width="2"/>
        <text x="48" y="21" class="small" fill="#b3261e" text-anchor="middle">Revoke…</text>
      </g>
    </g>
    <g transform="translate(760,204)">
      <rect x="4" y="4" width="96" height="32" rx="6" fill="#14140f"/>
      <rect x="0" y="0" width="96" height="32" rx="6" fill="#ffffff" stroke="#3355dd" stroke-width="2"/>
      <text x="48" y="21" class="small" fill="#b3261e" text-anchor="middle">Revoke…</text>
      <text x="0" y="46" class="mono">accent wins — focus is not intent</text>
    </g>
    <text x="960" y="225" class="mono">never held either</text>
    <g transform="translate(1180,204)">
      <rect x="0" y="0" width="96" height="32" rx="6" fill="#ffffff" stroke="#d9d9d4" stroke-width="2"/>
      <text x="48" y="21" class="small" fill="#5b5b55" text-anchor="middle">Revoke…</text>
    </g>
    <line x1="1" y1="256" x2="1343" y2="256" stroke="#d9d9d4" stroke-width="1"/>

    <text x="20" y="286" class="mono">Intent sets the fill and the ink. Geometry — frame, height, shadow, travel — is the same for all three, so a mixed row still sits on one line.</text>
    <text x="20" y="308" class="mono">Disabled overrides intent entirely: the fill goes back to --surface, the frame to --line, the label to --ink-muted. Nothing fades.</text>
  </g>

  <!-- ========================================================= KEYBOARD ==== -->
  <g transform="translate(48,808)">
    <text x="0" y="16" class="display" font-size="17">What the keyboard does</text>
    <line x1="0" y1="26" x2="1344" y2="26" stroke="#14140f" stroke-width="2"/>
  </g>

  <g transform="translate(48,846)">
    <rect x="0" y="0" width="1344" height="230" rx="6" fill="#ffffff" stroke="#d9d9d4" stroke-width="1"/>
    <rect x="1" y="1" width="1342" height="28" rx="5" fill="#f7f7f5"/>
    <text x="20" y="20" class="micro">CONTROL</text>
    <text x="240" y="20" class="micro">TAB</text>
    <text x="420" y="20" class="micro">SPACE</text>
    <text x="640" y="20" class="micro">ENTER</text>
    <text x="860" y="20" class="micro">ARROWS</text>
    <text x="1100" y="20" class="micro">ESC</text>

    <g class="small">
      <g transform="translate(0,52)">
        <text x="20" y="0">button</text>
        <text x="240" y="0">reaches it, frame turns accent</text>
        <text x="420" y="0">activates</text>
        <text x="640" y="0">activates</text>
        <text x="860" y="0" fill="#5b5b55">—</text>
        <text x="1100" y="0" fill="#5b5b55">—</text>
        <line x1="1" y1="14" x2="1343" y2="14" stroke="#d9d9d4" stroke-width="1"/>
      </g>
      <g transform="translate(0,88)">
        <text x="20" y="0">field, textarea</text>
        <text x="240" y="0">reaches it, fill comes up</text>
        <text x="420" y="0">types a space</text>
        <text x="640" y="0">submits the form</text>
        <text x="860" y="0" fill="#5b5b55">moves the caret</text>
        <text x="1100" y="0" fill="#5b5b55">—</text>
        <line x1="1" y1="14" x2="1343" y2="14" stroke="#d9d9d4" stroke-width="1"/>
      </g>
      <g transform="translate(0,124)">
        <text x="20" y="0">checkbox</text>
        <text x="240" y="0">reaches every one</text>
        <text x="420" y="0">toggles</text>
        <text x="640" y="0" fill="#5b5b55">—</text>
        <text x="860" y="0" fill="#5b5b55">—</text>
        <text x="1100" y="0" fill="#5b5b55">—</text>
        <line x1="1" y1="14" x2="1343" y2="14" stroke="#d9d9d4" stroke-width="1"/>
      </g>
      <g transform="translate(0,160)">
        <text x="20" y="0">radio group</text>
        <text x="240" y="0">reaches the group once</text>
        <text x="420" y="0">chooses</text>
        <text x="640" y="0" fill="#5b5b55">—</text>
        <text x="860" y="0">moves and chooses</text>
        <text x="1100" y="0" fill="#5b5b55">—</text>
        <line x1="1" y1="14" x2="1343" y2="14" stroke="#d9d9d4" stroke-width="1"/>
      </g>
      <g transform="translate(0,196)">
        <text x="20" y="0">select</text>
        <text x="240" y="0">reaches it</text>
        <text x="420" y="0">opens</text>
        <text x="640" y="0">picks and closes</text>
        <text x="860" y="0">walks the options</text>
        <text x="1100" y="0">closes, keeping the old value</text>
      </g>
    </g>
  </g>

  <!-- ====================================================== WHAT CHANGED === -->
  <g transform="translate(48,1120)">
    <text x="0" y="16" class="display" font-size="17">What the six decisions changed</text>
    <line x1="0" y1="26" x2="1344" y2="26" stroke="#14140f" stroke-width="2"/>
  </g>

  <g transform="translate(48,1158)">
    <rect x="0" y="0" width="1344" height="272" rx="6" fill="#ffffff" stroke="#d9d9d4" stroke-width="1"/>
    <rect x="1" y="1" width="1342" height="28" rx="5" fill="#f7f7f5"/>
    <text x="20" y="20" class="micro">WAS</text>
    <text x="700" y="20" class="micro">IS</text>

    <g class="small">
      <g transform="translate(0,52)">
        <text x="20" y="0">hover moved −2, then grew the gap 4 → 6 — the row breathed either way</text>
        <text x="700" y="0">hover changes the fill only — the gap never changes</text>
        <text x="1240" y="0" class="mono">1b</text>
        <line x1="1" y1="16" x2="1343" y2="16" stroke="#d9d9d4" stroke-width="1"/>
      </g>
      <g transform="translate(0,92)">
        <text x="20" y="0">focus on the inverted button was accent on ink — 2.82:1</text>
        <text x="700" y="0">the frame goes --page instead — 16.5:1</text>
        <text x="1240" y="0" class="mono">2a</text>
        <line x1="1" y1="16" x2="1343" y2="16" stroke="#d9d9d4" stroke-width="1"/>
      </g>
      <g transform="translate(0,132)">
        <text x="20" y="0">transform and box-shadow eased 90ms; fill and frame snapped</text>
        <text x="700" y="0">nothing eases — the whole state arrives at once</text>
        <text x="1240" y="0" class="mono">3b</text>
        <line x1="1" y1="16" x2="1343" y2="16" stroke="#d9d9d4" stroke-width="1"/>
      </g>
      <g transform="translate(0,172)">
        <text x="20" y="0">disabled was opacity .5 — it faded the label with everything else</text>
        <text x="700" y="0">frame --line, label --ink-muted, fill --surface. Fields and ticks too</text>
        <text x="1240" y="0" class="mono">4a</text>
        <line x1="1" y1="16" x2="1343" y2="16" stroke="#d9d9d4" stroke-width="1"/>
      </g>
      <g transform="translate(0,212)">
        <text x="20" y="0">:active outranked aria-pressed, so a held button left the row when clicked</text>
        <text x="700" y="0">:not([aria-pressed="true"]) on :active — what is held stays held</text>
        <text x="1240" y="0" class="mono">5b</text>
        <line x1="1" y1="16" x2="1343" y2="16" stroke="#d9d9d4" stroke-width="1"/>
      </g>
      <g transform="translate(0,252)">
        <text x="20" y="0">one button; the variants lived only in the mockup</text>
        <text x="700" y="0">.button-primary and .button-danger, on five and two places</text>
        <text x="1240" y="0" class="mono">6c</text>
      </g>
    </g>
  </g>

  <!-- =========================================================== OPEN ====== -->
  <g transform="translate(48,1484)">
    <text x="0" y="16" class="display" font-size="17">The tick, brought into line</text>
    <line x1="0" y1="26" x2="1344" y2="26" stroke="#14140f" stroke-width="2"/>
  </g>

  <g transform="translate(48,1522)">
    <rect x="0" y="0" width="1344" height="150" rx="6" fill="#ffffff" stroke="#d9d9d4" stroke-width="1"/>
    <text x="24" y="30" class="body" font-weight="700">A checkbox is a control, so it behaves like one.</text>
    <text x="24" y="54" class="small">
      It used to travel −1 −1 under the pointer, and then it grew its gap instead — in a column of fifteen scopes, fifteen things moving because a
    </text>
    <text x="24" y="72" class="small">
      pointer crossed them. It now does what a button does: the fill firms up and nothing else changes, and a click spends its own 2px of depth.
    </text>
    <g transform="translate(24,92)">
      <text x="0" y="14" class="micro">REST</text>
      <g transform="translate(60,0)">
        <rect x="2" y="2" width="18" height="18" rx="3" fill="#14140f"/>
        <rect x="0" y="0" width="18" height="18" rx="3" fill="#ffffff" stroke="#14140f" stroke-width="2"/>
      </g>
      <text x="120" y="14" class="micro">HOVER</text>
      <g transform="translate(190,0)">
        <rect x="2" y="2" width="18" height="18" rx="3" fill="#14140f"/>
        <rect x="0" y="0" width="18" height="18" rx="3" fill="#ebebe7" stroke="#14140f" stroke-width="2"/>
        <text x="30" y="14" class="mono">same gap, firmer fill</text>
      </g>
      <text x="380" y="14" class="micro">PRESS</text>
      <g transform="translate(450,0)">
        <rect x="0" y="0" width="20" height="20" rx="3" fill="none" stroke="#a8a8a2" stroke-width="1" stroke-dasharray="3 3"/>
        <g transform="translate(2,2)">
          <rect x="0" y="0" width="18" height="18" rx="3" fill="#ffffff" stroke="#14140f" stroke-width="2"/>
        </g>
        <text x="32" y="14" class="mono">travels its 2px, no shadow</text>
      </g>
    </g>
  </g>

  <g transform="translate(48,1706)">
    <rect x="0" y="0" width="1344" height="56" rx="6" fill="#f7f7f5" stroke="#d9d9d4" stroke-width="2"/>
    <text x="20" y="24" class="body">
      panel/design/button-states.svg — redrawn from the stylesheet after 1b · 2a · 3b · 4a · 5b · 6c. The matrix is what the code does today.
    </text>
    <text x="20" y="44" class="muted">
      Every state on this sheet is a record of what the stylesheet does, not a proposal.
    </text>
  </g>
</svg>
