<svg xmlns="http://www.w3.org/2000/svg" width="3009" height="1962" viewBox="0 0 3009 1962">
<title>02 · О себе — два шага регистрации</title>
<style>
    @font-face { font-family: "Golos Text"; font-weight: 400 600;
      src: url(/fonts/q5uCsoe9Lv5t7Meb31EcExN8hA.woff2) format("woff2"); }
    @font-face { font-family: "JetBrains Mono"; font-weight: 400;
      src: url(/fonts/tDbv2o-flEEny0FZhsfKu5WU4zr3E_BX0PnT8RD8yKwBNntkaToggR7BYRbKPxDcwg.woff2) format("woff2"); }
    text { font-family: "Golos Text", Inter, system-ui, sans-serif; }
    .t    { font-size: 16px; font-weight: 400; fill: #f0e7dc; }
    .tb   { font-size: 16px; font-weight: 600; fill: #f0e7dc; }
    .h    { font-size: 20px; font-weight: 600; fill: #f0e7dc; }
    .m    { font-size: 16px; font-weight: 400; fill: #9a8d7c; }
    .mb   { font-size: 16px; font-weight: 600; fill: #9a8d7c; }
    .err  { font-size: 16px; font-weight: 400; fill: #ef7a6a; }
    .acc  { font-size: 14px; font-weight: 600; fill: #e0714f; }
    .code { font-family: "JetBrains Mono", ui-monospace, monospace; font-size: 26px; fill: #f0e7dc; letter-spacing: 1px; }
    .mono { font-family: "JetBrains Mono", ui-monospace, monospace; font-size: 13px; fill: #9a8d7c; }
    .cap  { font-size: 16px; font-weight: 600; fill: #f0e7dc; }
    .capm { font-size: 14px; font-weight: 400; fill: #ab9d88; }
    .sheet { font-size: 26px; font-weight: 600; fill: #f0e7dc; }
    .sheetm { font-size: 14px; font-weight: 400; fill: #ab9d88; }
</style>
<rect width="3009" height="1962" style="fill:#302720"/>
<text x="48" y="34" class="sheet">02 · О себе — два шага регистрации</text>
<text x="48" y="56" class="sheetm">375×812 · тёмная тема, акцент terra · токены sosed.place · Golos Text 16/24 · JetBrains Mono для кода</text>
<g transform="translate(48,72)"><clipPath id="c0"><rect width="375" height="812" rx="24"/></clipPath><g clip-path="url(#c0)"><rect x="0" y="0" width="375" height="812" rx="0" style="fill:#0d0b0a;" /><rect x="0" y="0" width="375" height="56" rx="0" style="fill:#0d0b0a;" /><text x="24" y="34" class="h" >Кто вы</text><text x="351" y="34" class="mono" text-anchor="end" >1 / 2</text><text x="24" y="98" class="m" >Язык</text><rect x="24" y="108" width="327" height="44" rx="8" style="fill:#262019;stroke:#80705a;stroke-width:1;" /><text x="36" y="136" class="t" >Русский</text><path d="M330 126 L338 134 L346 126" style="fill:none;stroke:#9a8d7c;stroke-width:2"/><text x="24" y="186" class="m" >Как вас называть</text><rect x="24" y="196" width="327" height="44" rx="8" style="fill:#262019;stroke:#80705a;stroke-width:1;" /><rect x="22" y="194" width="331" height="48" rx="10" style="fill:none;stroke:#e0714f;stroke-width:2;" /><text x="351" y="262" class="mono" text-anchor="end" >осталось 24</text><text x="24" y="274" class="m" >возраст</text><rect x="24" y="284" width="112" height="44" rx="8" style="fill:#262019;stroke:#80705a;stroke-width:1;" /><text x="148" y="320" class="m" >сюда с 13 лет</text><rect x="24" y="352" width="24" height="24" rx="6" style="fill:#262019;" /><text x="60" y="362" class="t" >принимаю соглашение,</text><text x="60" y="382" class="t" >политику и правила</text><text x="24" y="410" class="acc" >Пользовательское соглашение</text><text x="24" y="438" class="acc" >Политика конфиденциальности</text><text x="24" y="466" class="acc" >Правила сообщества</text><line x1="24" y1="484" x2="351" y2="484" style="stroke:#3a2e20;stroke-width:1"/><text x="24" y="728" class="m" >дальше — после согласия</text><rect x="24" y="740" width="327" height="48" rx="13" style="fill:#262019;stroke:#80705a;stroke-width:1;" stroke-dasharray="4 4"/><text x="187.5" y="770" class="mb" text-anchor="middle" >дальше</text></g><rect width="375" height="812" rx="24" style="fill:none;stroke:#3a2e20;stroke-width:2"/><text x="0" y="842" class="cap">1 · шаг 1, пусто</text><text x="0" y="862" class="capm">«дальше» неактивна: согласия нет (Н1)</text></g>
<g transform="translate(471,72)"><clipPath id="c1"><rect width="375" height="812" rx="24"/></clipPath><g clip-path="url(#c1)"><rect x="0" y="0" width="375" height="812" rx="0" style="fill:#0d0b0a;" /><rect x="0" y="0" width="375" height="56" rx="0" style="fill:#0d0b0a;" /><text x="24" y="34" class="h" >Кто вы</text><text x="351" y="34" class="mono" text-anchor="end" >1 / 2</text><text x="24" y="98" class="m" >Язык</text><rect x="24" y="108" width="327" height="44" rx="8" style="fill:#262019;stroke:#80705a;stroke-width:1;" /><text x="36" y="136" class="t" >Русский</text><path d="M330 126 L338 134 L346 126" style="fill:none;stroke:#9a8d7c;stroke-width:2"/><text x="24" y="186" class="m" >Как вас называть</text><rect x="24" y="196" width="327" height="44" rx="8" style="fill:#262019;stroke:#80705a;stroke-width:1;" /><text x="36" y="224" class="t" >Женя</text><text x="351" y="262" class="mono" text-anchor="end" >осталось 20</text><text x="24" y="274" class="m" >возраст</text><rect x="24" y="284" width="112" height="44" rx="8" style="fill:#262019;stroke:#80705a;stroke-width:1;" /><text x="36" y="312" class="t" >12</text><circle cx="160" cy="314" r="8" style="fill:#ef7a6a"/><text x="160" y="319" class="tb" text-anchor="middle" style="fill:#0d0b0a;font-size:13px">!</text><text x="176" y="320" class="err" >сюда с 13 лет</text><rect x="24" y="352" width="24" height="24" rx="6" style="fill:#262019;stroke:#f0e7dc;stroke-width:1;" /><path d="M30 364 L35 369 L43 359" style="fill:none;stroke:#f0e7dc;stroke-width:2"/><text x="60" y="362" class="t" >принимаю соглашение,</text><text x="60" y="382" class="t" >политику и правила</text><text x="24" y="410" class="acc" >Пользовательское соглашение</text><text x="24" y="438" class="acc" >Политика конфиденциальности</text><text x="24" y="466" class="acc" >Правила сообщества</text><line x1="24" y1="484" x2="351" y2="484" style="stroke:#3a2e20;stroke-width:1"/><rect x="27" y="743" width="327" height="48" rx="13" style="fill:#3a2e20;" /><rect x="24" y="740" width="327" height="48" rx="13" style="fill:#bd4b2a;" /><text x="187.5" y="770" class="tb" text-anchor="middle" style="fill:#fff6f0">дальше</text></g><rect width="375" height="812" rx="24" style="fill:none;stroke:#3a2e20;stroke-width:2"/><text x="0" y="842" class="cap">2 · шаг 1, ошибка возраста</text><text x="0" y="862" class="capm">«сюда с 13 лет» стояла до ввода, после отказа узла —</text><text x="0" y="880" class="capm">красная и со знаком</text></g>
<g transform="translate(894,72)"><clipPath id="c2"><rect width="375" height="812" rx="24"/></clipPath><g clip-path="url(#c2)"><rect x="0" y="0" width="375" height="812" rx="0" style="fill:#0d0b0a;" /><rect x="0" y="0" width="375" height="56" rx="0" style="fill:#0d0b0a;" /><path d="M34 20 L24 28 L34 36" style="fill:none;stroke:#f0e7dc;stroke-width:2"/><text x="56" y="34" class="h" >Чем вы вернётесь</text><text x="351" y="34" class="mono" text-anchor="end" >2 / 2</text><text x="24" y="86" class="m" >ПИН</text><rect x="24" y="96" width="327" height="44" rx="8" style="fill:#262019;stroke:#80705a;stroke-width:1;" /><circle cx="107.5" cy="118" r="6" style="fill:#f0e7dc"/><circle cx="139.5" cy="118" r="6" style="fill:#f0e7dc"/><circle cx="171.5" cy="118" r="6" style="fill:#f0e7dc"/><circle cx="203.5" cy="118" r="6" style="fill:#f0e7dc"/><circle cx="235.5" cy="118" r="6" style="fill:#f0e7dc"/><circle cx="267.5" cy="118" r="6" style="fill:#f0e7dc"/><text x="24" y="154" class="m" >повторите ПИН</text><rect x="24" y="164" width="327" height="44" rx="8" style="fill:#262019;stroke:#80705a;stroke-width:1;" /><circle cx="107.5" cy="186" r="6" style="fill:#f0e7dc"/><circle cx="139.5" cy="186" r="6" style="fill:#f0e7dc"/><circle cx="171.5" cy="186" r="6" style="fill:#f0e7dc"/><circle cx="203.5" cy="186" r="6" style="fill:#f0e7dc"/><circle cx="235.5" cy="186" r="6" style="fill:#f0e7dc"/><circle cx="267.5" cy="186" r="6" style="fill:#f0e7dc"/><text x="24" y="230" class="err" >этот ПИН легко угадать</text><rect x="24" y="250" width="200" height="14" rx="6" style="fill:#302720;" /><rect x="24" y="272" width="327" height="64" rx="13" style="fill:#262019;" /><rect x="40" y="297" width="295" height="16" rx="6" style="fill:#302720;" /><rect x="24" y="352" width="240" height="16" rx="6" style="fill:#302720;" /><rect x="24" y="386" width="327" height="12" rx="6" style="fill:#302720;" /><rect x="24" y="408" width="327" height="12" rx="6" style="fill:#302720;" /><rect x="24" y="430" width="327" height="12" rx="6" style="fill:#302720;" /><rect x="24" y="452" width="327" height="12" rx="6" style="fill:#302720;" /><rect x="24" y="474" width="327" height="12" rx="6" style="fill:#302720;" /><rect x="24" y="496" width="180" height="12" rx="6" style="fill:#302720;" /><rect x="24" y="740" width="327" height="48" rx="13" style="fill:#262019;stroke:#80705a;stroke-width:1;" stroke-dasharray="4 4"/><text x="187.5" y="770" class="mb" text-anchor="middle" >дальше</text></g><rect width="375" height="812" rx="24" style="fill:none;stroke:#3a2e20;stroke-width:2"/><text x="0" y="842" class="cap">3 · шаг 2, ждём долю</text><text x="0" y="862" class="capm">скелет на месте кода без подписи (Н3); «дальше»</text><text x="0" y="880" class="capm">недоступна</text></g>
<g transform="translate(1317,72)"><clipPath id="c3"><rect width="375" height="812" rx="24"/></clipPath><g clip-path="url(#c3)"><rect x="0" y="0" width="375" height="812" rx="0" style="fill:#0d0b0a;" /><rect x="0" y="0" width="375" height="56" rx="0" style="fill:#0d0b0a;" /><path d="M34 20 L24 28 L34 36" style="fill:none;stroke:#f0e7dc;stroke-width:2"/><text x="56" y="34" class="h" >Чем вы вернётесь</text><text x="351" y="34" class="mono" text-anchor="end" >2 / 2</text><text x="24" y="86" class="m" >ПИН</text><rect x="24" y="96" width="327" height="44" rx="8" style="fill:#262019;stroke:#80705a;stroke-width:1;" /><circle cx="107.5" cy="118" r="6" style="fill:#f0e7dc"/><circle cx="139.5" cy="118" r="6" style="fill:#f0e7dc"/><circle cx="171.5" cy="118" r="6" style="fill:#f0e7dc"/><circle cx="203.5" cy="118" r="6" style="fill:#f0e7dc"/><circle cx="235.5" cy="118" r="6" style="fill:#f0e7dc"/><circle cx="267.5" cy="118" r="6" style="fill:#f0e7dc"/><text x="24" y="154" class="m" >повторите ПИН</text><rect x="24" y="164" width="327" height="44" rx="8" style="fill:#262019;stroke:#80705a;stroke-width:1;" /><circle cx="107.5" cy="186" r="6" style="fill:#f0e7dc"/><circle cx="139.5" cy="186" r="6" style="fill:#f0e7dc"/><circle cx="171.5" cy="186" r="6" style="fill:#f0e7dc"/><circle cx="203.5" cy="186" r="6" style="fill:#f0e7dc"/><circle cx="235.5" cy="186" r="6" style="fill:#f0e7dc"/><circle cx="267.5" cy="186" r="6" style="fill:#f0e7dc"/><text x="24" y="230" class="err" >этот ПИН легко угадать</text><text x="24" y="262" class="m" >Бумажный код восстановления</text><rect x="24" y="272" width="327" height="64" rx="13" style="fill:#262019;" /><text x="187" y="312" class="code" text-anchor="middle" >8K3P  Q7ZW  XN2M  5AY9</text><text x="24" y="362" class="tb" >Запишите этот код на бумаге.</text><text x="24" y="386" class="t" >Это единственный способ вернуть вашу</text><text x="24" y="408" class="t" >личность. Почты и пароля у нас нет — если</text><text x="24" y="430" class="t" >вы потеряете устройство, очистите данные</text><text x="24" y="452" class="t" >сайта или браузер сам сотрёт их, когда</text><text x="24" y="474" class="t" >ему станет тесно на диске, восстановить</text><text x="24" y="496" class="t" >вас будет нечем, и подсказать код мы не</text><text x="24" y="518" class="t" >сможем: у нас его нет. Никто из поддержки</text><text x="24" y="540" class="t" >не попросит этот код. Второй раз он</text><text x="24" y="562" class="t" >показан не будет.</text><text x="24" y="590" class="m" >Личность вернётся по коду. Переписка —</text><text x="24" y="612" class="m" >нет: её нет ни у нас, ни где-либо ещё.</text><text x="24" y="648" class="m" >Записали? Введите вторую и четвёртую</text><rect x="24" y="658" width="108" height="44" rx="8" style="fill:#262019;stroke:#80705a;stroke-width:1;" /><text x="78" y="687" class="code" text-anchor="middle" style="font-size:18px">____</text><rect x="144" y="658" width="108" height="44" rx="8" style="fill:#262019;stroke:#80705a;stroke-width:1;" /><text x="198" y="687" class="code" text-anchor="middle" style="font-size:18px">____</text><text x="24" y="728" class="m" >дальше — когда код записан</text><rect x="24" y="740" width="327" height="48" rx="13" style="fill:#262019;stroke:#80705a;stroke-width:1;" stroke-dasharray="4 4"/><text x="187.5" y="770" class="mb" text-anchor="middle" >дальше</text></g><rect width="375" height="812" rx="24" style="fill:none;stroke:#3a2e20;stroke-width:2"/><text x="0" y="842" class="cap">4 · шаг 2, код показан</text><text x="0" y="862" class="capm">четыре группы по четыре; подтверждение — группы 2 и 4</text></g>
<g transform="translate(1740,72)"><clipPath id="c4"><rect width="375" height="812" rx="24"/></clipPath><g clip-path="url(#c4)"><rect x="0" y="0" width="375" height="812" rx="0" style="fill:#0d0b0a;" /><rect x="0" y="0" width="375" height="56" rx="0" style="fill:#0d0b0a;" /><path d="M34 20 L24 28 L34 36" style="fill:none;stroke:#f0e7dc;stroke-width:2"/><text x="56" y="34" class="h" >Чем вы вернётесь</text><text x="351" y="34" class="mono" text-anchor="end" >2 / 2</text><text x="24" y="86" class="m" >ПИН</text><rect x="24" y="96" width="327" height="44" rx="8" style="fill:#262019;stroke:#80705a;stroke-width:1;" /><circle cx="107.5" cy="118" r="6" style="fill:#f0e7dc"/><circle cx="139.5" cy="118" r="6" style="fill:#f0e7dc"/><circle cx="171.5" cy="118" r="6" style="fill:#f0e7dc"/><circle cx="203.5" cy="118" r="6" style="fill:#f0e7dc"/><circle cx="235.5" cy="118" r="6" style="fill:#f0e7dc"/><circle cx="267.5" cy="118" r="6" style="fill:#f0e7dc"/><text x="24" y="154" class="m" >повторите ПИН</text><rect x="24" y="164" width="327" height="44" rx="8" style="fill:#262019;stroke:#80705a;stroke-width:1;" /><circle cx="107.5" cy="186" r="6" style="fill:#f0e7dc"/><circle cx="139.5" cy="186" r="6" style="fill:#f0e7dc"/><circle cx="171.5" cy="186" r="6" style="fill:#f0e7dc"/><circle cx="203.5" cy="186" r="6" style="fill:#f0e7dc"/><circle cx="235.5" cy="186" r="6" style="fill:#f0e7dc"/><circle cx="267.5" cy="186" r="6" style="fill:#f0e7dc"/><text x="24" y="230" class="err" >этот ПИН легко угадать</text><rect x="24" y="262" width="327" height="10" rx="0" style="fill:none;" /><text x="40" y="292" class="tb" >У нас не получилось</text><text x="40" y="324" class="t" >Мы не ответили — это на нашей</text><text x="40" y="348" class="t" >стороне. Имя, возраст и ПИН на</text><text x="40" y="372" class="t" >месте — код покажем, как только</text><text x="40" y="396" class="t" >ответим.</text><rect x="40" y="428" width="295" height="44" rx="13" style="fill:#262019;stroke:#f0e7dc;stroke-width:1;" /><text x="187.5" y="458" class="tb" text-anchor="middle" >повторить</text><rect x="24" y="262" width="327" height="226" rx="13" style="fill:none;" /><rect x="24" y="740" width="327" height="48" rx="13" style="fill:#262019;stroke:#80705a;stroke-width:1;" stroke-dasharray="4 4"/><text x="187.5" y="770" class="mb" text-anchor="middle" >дальше</text></g><rect width="375" height="812" rx="24" style="fill:none;stroke:#3a2e20;stroke-width:2"/><text x="0" y="842" class="cap">5 · шаг 2, у нас не получилось</text><text x="0" y="862" class="capm">экран 11: «У нас не получилось» · «Повторить»; ПИН на</text><text x="0" y="880" class="capm">месте</text></g>
<g transform="translate(2163,72)"><clipPath id="c5"><rect width="375" height="812" rx="24"/></clipPath><g clip-path="url(#c5)"><rect x="0" y="0" width="375" height="812" rx="0" style="fill:#0d0b0a;" /><rect x="0" y="0" width="375" height="56" rx="0" style="fill:#0d0b0a;" /><path d="M34 20 L24 28 L34 36" style="fill:none;stroke:#f0e7dc;stroke-width:2"/><text x="56" y="34" class="h" >Чем вы вернётесь</text><text x="351" y="34" class="mono" text-anchor="end" >2 / 2</text><text x="24" y="86" class="m" >ПИН</text><rect x="24" y="96" width="327" height="44" rx="8" style="fill:#262019;stroke:#80705a;stroke-width:1;" /><circle cx="107.5" cy="118" r="6" style="fill:#f0e7dc"/><circle cx="139.5" cy="118" r="6" style="fill:#f0e7dc"/><circle cx="171.5" cy="118" r="6" style="fill:#f0e7dc"/><circle cx="203.5" cy="118" r="6" style="fill:#f0e7dc"/><circle cx="235.5" cy="118" r="6" style="fill:#f0e7dc"/><circle cx="267.5" cy="118" r="6" style="fill:#f0e7dc"/><text x="24" y="154" class="m" >повторите ПИН</text><rect x="24" y="164" width="327" height="44" rx="8" style="fill:#262019;stroke:#80705a;stroke-width:1;" /><circle cx="107.5" cy="186" r="6" style="fill:#f0e7dc"/><circle cx="139.5" cy="186" r="6" style="fill:#f0e7dc"/><circle cx="171.5" cy="186" r="6" style="fill:#f0e7dc"/><circle cx="203.5" cy="186" r="6" style="fill:#f0e7dc"/><circle cx="235.5" cy="186" r="6" style="fill:#f0e7dc"/><circle cx="267.5" cy="186" r="6" style="fill:#f0e7dc"/><text x="24" y="230" class="err" >этот ПИН легко угадать</text><rect x="24" y="262" width="327" height="10" rx="0" style="fill:none;" /><text x="40" y="292" class="tb" >Нет связи</text><text x="40" y="324" class="t" >Похоже, интернет пропал. Имя,</text><text x="40" y="348" class="t" >возраст и ПИН на месте — код</text><text x="40" y="372" class="t" >покажем, как только появится</text><text x="40" y="396" class="t" >связь.</text><rect x="40" y="428" width="295" height="44" rx="13" style="fill:#262019;stroke:#f0e7dc;stroke-width:1;" /><text x="187.5" y="458" class="tb" text-anchor="middle" >повторить</text><rect x="24" y="262" width="327" height="226" rx="13" style="fill:none;" /><rect x="24" y="740" width="327" height="48" rx="13" style="fill:#262019;stroke:#80705a;stroke-width:1;" stroke-dasharray="4 4"/><text x="187.5" y="770" class="mb" text-anchor="middle" >дальше</text></g><rect width="375" height="812" rx="24" style="fill:none;stroke:#3a2e20;stroke-width:2"/><text x="0" y="842" class="cap">6 · шаг 2, нет сети</text><text x="0" y="862" class="capm">экран 11: «Нет связи» · «Повторить»</text></g>
<g transform="translate(2586,72)"><clipPath id="c6"><rect width="375" height="812" rx="24"/></clipPath><g clip-path="url(#c6)"><rect x="0" y="0" width="375" height="812" rx="0" style="fill:#0d0b0a;" /><rect x="0" y="0" width="375" height="56" rx="0" style="fill:#0d0b0a;" /><text x="24" y="34" class="h" >Кто вы</text><text x="351" y="34" class="mono" text-anchor="end" >1 / 2</text><text x="24" y="98" class="m" >Язык</text><rect x="24" y="108" width="327" height="44" rx="8" style="fill:#262019;stroke:#80705a;stroke-width:1;" /><text x="36" y="136" class="t" >Русский</text><path d="M330 126 L338 134 L346 126" style="fill:none;stroke:#9a8d7c;stroke-width:2"/><text x="24" y="186" class="m" >Как вас называть</text><rect x="24" y="196" width="327" height="44" rx="8" style="fill:#262019;stroke:#80705a;stroke-width:1;" /><rect x="22" y="194" width="331" height="48" rx="10" style="fill:none;stroke:#e0714f;stroke-width:2;" /><text x="351" y="262" class="mono" text-anchor="end" >осталось 24</text><text x="24" y="274" class="m" >возраст</text><rect x="24" y="284" width="112" height="44" rx="8" style="fill:#262019;stroke:#80705a;stroke-width:1;" /><text x="148" y="320" class="m" >сюда с 13 лет</text><rect x="24" y="352" width="24" height="24" rx="6" style="fill:#262019;" /><text x="60" y="362" class="t" >принимаю соглашение,</text><text x="60" y="382" class="t" >политику и правила</text><text x="24" y="410" class="acc" >Пользовательское соглашение</text><text x="24" y="438" class="acc" >Политика конфиденциальности</text><text x="24" y="466" class="acc" >Правила сообщества</text><line x1="24" y1="484" x2="351" y2="484" style="stroke:#3a2e20;stroke-width:1"/><text x="24" y="728" class="m" >дальше — после согласия</text><rect x="24" y="740" width="327" height="48" rx="13" style="fill:#262019;stroke:#80705a;stroke-width:1;" stroke-dasharray="4 4"/><text x="187.5" y="770" class="mb" text-anchor="middle" >дальше</text><rect x="0" y="0" width="375" height="812" rx="0" style="fill:#0d0b0a;" opacity="0.7"/><rect x="0" y="96" width="375" height="716" rx="13" style="fill:#262019;" /><rect x="163" y="106" width="48" height="4" rx="2" style="fill:#3a2e20;" /><text x="24" y="146" class="h" >Пользовательское соглашение</text><path d="M335 130 L351 146 M351 130 L335 146" style="fill:none;stroke:#f0e7dc;stroke-width:2"/><text x="343" y="166" class="mono" text-anchor="middle" >закрыть</text><text x="24" y="180" class="m" style="font-size:14px">этот документ существует только на английском</text><line x1="0" y1="196" x2="375" y2="196" style="stroke:#3a2e20;stroke-width:1"/><rect x="24" y="220" width="327" height="10" rx="6" style="fill:#302720;" /><rect x="24" y="242" width="327" height="10" rx="6" style="fill:#302720;" /><rect x="24" y="264" width="327" height="10" rx="6" style="fill:#302720;" /><rect x="24" y="286" width="327" height="10" rx="6" style="fill:#302720;" /><rect x="24" y="308" width="134" height="10" rx="6" style="fill:#302720;" /><rect x="24" y="330" width="327" height="10" rx="6" style="fill:#302720;" /><rect x="24" y="352" width="327" height="10" rx="6" style="fill:#302720;" /><rect x="24" y="374" width="327" height="10" rx="6" style="fill:#302720;" /><rect x="24" y="396" width="327" height="10" rx="6" style="fill:#302720;" /><rect x="24" y="418" width="143" height="10" rx="6" style="fill:#302720;" /><rect x="24" y="440" width="327" height="10" rx="6" style="fill:#302720;" /><rect x="24" y="462" width="327" height="10" rx="6" style="fill:#302720;" /><rect x="24" y="484" width="327" height="10" rx="6" style="fill:#302720;" /><rect x="24" y="506" width="327" height="10" rx="6" style="fill:#302720;" /><rect x="24" y="528" width="141" height="10" rx="6" style="fill:#302720;" /><rect x="24" y="550" width="327" height="10" rx="6" style="fill:#302720;" /><rect x="24" y="572" width="327" height="10" rx="6" style="fill:#302720;" /><rect x="24" y="594" width="327" height="10" rx="6" style="fill:#302720;" /><rect x="24" y="616" width="327" height="10" rx="6" style="fill:#302720;" /><rect x="24" y="638" width="212" height="10" rx="6" style="fill:#302720;" /><text x="24" y="700" class="mono" >[текст документа: sosed.place/legal, EN]</text><rect x="24" y="740" width="327" height="48" rx="13" style="fill:#262019;stroke:#f0e7dc;stroke-width:1;" /><text x="187.5" y="770" class="tb" text-anchor="middle" >закрыть</text></g><rect width="375" height="812" rx="24" style="fill:none;stroke:#3a2e20;stroke-width:2"/><text x="0" y="842" class="cap">7 · документ поверх шага 1</text><text x="0" y="862" class="capm">лист снизу; строка «только на английском» (экран 15)</text></g>
<g transform="translate(48,1022)"><clipPath id="c7"><rect width="375" height="812" rx="24"/></clipPath><g clip-path="url(#c7)"><rect x="0" y="0" width="375" height="812" rx="0" style="fill:#0d0b0a;" /><rect x="0" y="0" width="375" height="56" rx="0" style="fill:#0d0b0a;" /><path d="M34 20 L24 28 L34 36" style="fill:none;stroke:#f0e7dc;stroke-width:2"/><text x="56" y="34" class="h" >Чем вы вернётесь</text><text x="351" y="34" class="mono" text-anchor="end" >2 / 2</text><text x="24" y="86" class="m" >ПИН</text><rect x="24" y="96" width="327" height="44" rx="8" style="fill:#262019;stroke:#80705a;stroke-width:1;" /><circle cx="107.5" cy="118" r="6" style="fill:#f0e7dc"/><circle cx="139.5" cy="118" r="6" style="fill:#f0e7dc"/><circle cx="171.5" cy="118" r="6" style="fill:#f0e7dc"/><circle cx="203.5" cy="118" r="6" style="fill:#f0e7dc"/><circle cx="235.5" cy="118" r="6" style="fill:#f0e7dc"/><circle cx="267.5" cy="118" r="6" style="fill:#f0e7dc"/><text x="24" y="154" class="m" >повторите ПИН</text><rect x="24" y="164" width="327" height="44" rx="8" style="fill:#262019;stroke:#80705a;stroke-width:1;" /><circle cx="107.5" cy="186" r="6" style="fill:#f0e7dc"/><circle cx="139.5" cy="186" r="6" style="fill:#f0e7dc"/><circle cx="171.5" cy="186" r="6" style="fill:#f0e7dc"/><circle cx="203.5" cy="186" r="6" style="fill:#f0e7dc"/><circle cx="235.5" cy="186" r="6" style="fill:#f0e7dc"/><circle cx="267.5" cy="186" r="6" style="fill:#f0e7dc"/><text x="24" y="230" class="err" >этот ПИН легко угадать</text><text x="24" y="262" class="m" >Бумажный код восстановления</text><rect x="24" y="272" width="327" height="64" rx="13" style="fill:#262019;" /><text x="187" y="312" class="code" text-anchor="middle" >8K3P  Q7ZW  XN2M  5AY9</text><text x="24" y="362" class="tb" >Запишите этот код на бумаге.</text><text x="24" y="386" class="t" >Это единственный способ вернуть вашу</text><text x="24" y="408" class="t" >личность. Почты и пароля у нас нет — если</text><text x="24" y="430" class="t" >вы потеряете устройство, очистите данные</text><text x="24" y="452" class="t" >сайта или браузер сам сотрёт их, когда</text><text x="24" y="474" class="t" >ему станет тесно на диске, восстановить</text><text x="24" y="496" class="t" >вас будет нечем, и подсказать код мы не</text><text x="24" y="518" class="t" >сможем: у нас его нет. Никто из поддержки</text><text x="24" y="540" class="t" >не попросит этот код. Второй раз он</text><text x="24" y="562" class="t" >показан не будет.</text><text x="24" y="590" class="m" >Личность вернётся по коду. Переписка —</text><text x="24" y="612" class="m" >нет: её нет ни у нас, ни где-либо ещё.</text><text x="24" y="648" class="m" >Записали? Введите вторую и четвёртую</text><rect x="24" y="658" width="108" height="44" rx="8" style="fill:#262019;stroke:#80705a;stroke-width:1;" /><text x="78" y="689" class="code" text-anchor="middle" >Q7ZW</text><rect x="144" y="658" width="108" height="44" rx="8" style="fill:#262019;stroke:#80705a;stroke-width:1;" /><text x="198" y="689" class="code" text-anchor="middle" >5AY9</text><rect x="27" y="743" width="327" height="48" rx="13" style="fill:#3a2e20;" /><rect x="24" y="740" width="327" height="48" rx="13" style="fill:#bd4b2a;" /><text x="187.5" y="770" class="tb" text-anchor="middle" style="fill:#fff6f0">дальше</text></g><rect width="375" height="812" rx="24" style="fill:none;stroke:#3a2e20;stroke-width:2"/><text x="0" y="842" class="cap">8 · шаг 2, код подтверждён</text><text x="0" y="862" class="capm">вторая и четвёртая группы введены верно — «дальше»</text><text x="0" y="880" class="capm">активна; «не пропускает, пока не введены две группы»</text><text x="0" y="898" class="capm">(chat_RU.md:1302, 02-name-screen_RU.md:72)</text></g>
<g transform="translate(471,1022)"><clipPath id="c8"><rect width="375" height="812" rx="24"/></clipPath><g clip-path="url(#c8)"><rect x="0" y="0" width="375" height="812" rx="0" style="fill:#0d0b0a;" /><rect x="0" y="0" width="375" height="56" rx="0" style="fill:#0d0b0a;" /><path d="M34 20 L24 28 L34 36" style="fill:none;stroke:#f0e7dc;stroke-width:2"/><text x="56" y="34" class="h" >Чем вы вернётесь</text><text x="351" y="34" class="mono" text-anchor="end" >2 / 2</text><text x="24" y="86" class="m" >ПИН</text><rect x="24" y="96" width="327" height="44" rx="8" style="fill:#262019;stroke:#80705a;stroke-width:1;" /><circle cx="107.5" cy="118" r="6" style="fill:#f0e7dc"/><circle cx="139.5" cy="118" r="6" style="fill:#f0e7dc"/><circle cx="171.5" cy="118" r="6" style="fill:#f0e7dc"/><circle cx="203.5" cy="118" r="6" style="fill:#f0e7dc"/><circle cx="235.5" cy="118" r="6" style="fill:#f0e7dc"/><circle cx="267.5" cy="118" r="6" style="fill:#f0e7dc"/><text x="24" y="154" class="m" >повторите ПИН</text><rect x="24" y="164" width="327" height="44" rx="8" style="fill:#262019;stroke:#80705a;stroke-width:1;" /><circle cx="107.5" cy="186" r="6" style="fill:#f0e7dc"/><circle cx="139.5" cy="186" r="6" style="fill:#f0e7dc"/><circle cx="171.5" cy="186" r="6" style="fill:#f0e7dc"/><circle cx="203.5" cy="186" r="6" style="fill:#f0e7dc"/><circle cx="235.5" cy="186" r="6" style="fill:#f0e7dc"/><circle cx="267.5" cy="186" r="6" style="fill:#f0e7dc"/><text x="24" y="230" class="err" >этот ПИН легко угадать</text><text x="24" y="262" class="m" >Бумажный код восстановления</text><rect x="24" y="272" width="327" height="64" rx="13" style="fill:#262019;" /><text x="187" y="312" class="code" text-anchor="middle" >8K3P  Q7ZW  XN2M  5AY9</text><text x="24" y="362" class="tb" >Запишите этот код на бумаге.</text><text x="24" y="386" class="t" >Это единственный способ вернуть вашу</text><text x="24" y="408" class="t" >личность. Почты и пароля у нас нет — если</text><text x="24" y="430" class="t" >вы потеряете устройство, очистите данные</text><text x="24" y="452" class="t" >сайта или браузер сам сотрёт их, когда</text><text x="24" y="474" class="t" >ему станет тесно на диске, восстановить</text><text x="24" y="496" class="t" >вас будет нечем, и подсказать код мы не</text><text x="24" y="518" class="t" >сможем: у нас его нет. Никто из поддержки</text><text x="24" y="540" class="t" >не попросит этот код. Второй раз он</text><text x="24" y="562" class="t" >показан не будет.</text><text x="24" y="604" class="m" >Записали? Введите вторую и четвёртую</text><rect x="24" y="614" width="108" height="44" rx="8" style="fill:#262019;stroke:#80705a;stroke-width:1;" /><text x="78" y="645" class="code" text-anchor="middle" >Q7ZW</text><rect x="144" y="614" width="108" height="44" rx="8" style="fill:#262019;stroke:#80705a;stroke-width:1;" /><text x="198" y="645" class="code" text-anchor="middle" >5A49</text><circle cx="32" cy="690" r="8" style="fill:#ef7a6a"/><text x="32" y="695" class="tb" text-anchor="middle" style="fill:#0d0b0a;font-size:13px">!</text><text x="52" y="696" class="err" >Не совпадает с кодом —</text><text x="52" y="718" class="err" >сверьте с бумагой.</text><rect x="24" y="740" width="327" height="48" rx="13" style="fill:#262019;stroke:#80705a;stroke-width:1;" stroke-dasharray="4 4"/><text x="187.5" y="770" class="mb" text-anchor="middle" >дальше</text></g><rect width="375" height="812" rx="24" style="fill:none;stroke:#3a2e20;stroke-width:2"/><text x="0" y="842" class="cap">9 · шаг 2, группы не совпали</text><text x="0" y="862" class="capm">«Не совпадает с кодом — сверьте с бумагой.»</text><text x="0" y="880" class="capm">(entry-cluster.md:261); экран прокручен к подтверждению; ошибка</text><text x="0" y="898" class="capm">стоит личности (02-name-screen_RU.md:72, 82)</text></g>
</svg>