<svg xmlns="http://www.w3.org/2000/svg" width="375" height="812" viewBox="0 0 375 812">
<defs><style>@font-face{font-family:"Russo One";src:url(/fonts/comic-russo-one.ttf)}@font-face{font-family:"Golos Text";font-weight:500;src:url(/fonts/comic-golos-500.ttf)}
.h{font-family:"Russo One";letter-spacing:.04em}.b,.m{font-family:"Golos Text";font-weight:500}.mono{font-family:"DejaVu Sans Mono",monospace;font-weight:700}</style>
<linearGradient id="gold" x1="0" y1="0" x2="1" y2="1"><stop offset="0" stop-color="#b8893b"/><stop offset=".5" stop-color="#e9cf8a"/><stop offset="1" stop-color="#b8893b"/></linearGradient><pattern id="sh" width="6" height="6" patternUnits="userSpaceOnUse"><rect width="6" height="6" fill="#141018"/><circle cx="3" cy="3" r="1.9" fill="#141018"/></pattern></defs>
<rect width="375" height="812" fill="#f6efe2"/>
<g transform="translate(4.4 0) scale(0.9767)">
<polygon points="64,16 363,12 367,60 60,64" fill="url(#gold)" stroke="#141018" stroke-width="2.5" stroke-linejoin="round"/>
<text x="76" y="46" class="h" font-size="19.8" fill="#141018" text-anchor="start" >один</text>
<rect x="14" y="20" width="44" height="44" fill="#141018"/>
<rect x="10" y="16" width="44" height="44" fill="#fffaf0" stroke="#141018" stroke-width="2.5"/>
<g transform="translate(19.04 25.04) scale(1.08)" fill="none" stroke="#141018" stroke-width="2.4" stroke-linecap="round" stroke-linejoin="round" style="--f:#ffffff"><path d="M15 5 L8 12 L15 19"/></g>
<text x="16" y="280" class="h" font-size="25.2" fill="#141018" text-anchor="start" >иду к реке mupseceg</text>
<path transform="translate(16 320) scale(0.5833333333333334)" d="M12 21 C5 16 2 12.5 2 8.5 A5 5 0 0 1 12 6.5 A5 5 0 0 1 22 8.5 C22 12.5 19 16 12 21Z" fill="#bd4b2a" stroke="#141018" stroke-width="5.142857142857143" stroke-linejoin="round"/>
<text x="34" y="332" class="b" font-size="16" fill="#141018" text-anchor="start" >0</text>
<rect x="20" y="684" width="100" height="48" fill="#141018"/>
<rect x="16" y="680" width="100" height="48" fill="url(#gold)" stroke="#141018" stroke-width="2.5" />
<g opacity="1">
<circle cx="69.0" cy="707.0" r="16.8" fill="#141018"/><circle cx="66.0" cy="704.0" r="16.8" fill="url(#gold)" stroke="#141018" stroke-width="2.5"/>
<circle cx="66.0" cy="704.0" r="13.3" fill="none" stroke="#7a5a22" stroke-width="1"/><circle cx="66.0" cy="704.0" r="10.8" fill="none" stroke="#fff2cc" stroke-width="1"/>
<path transform="translate(58.0 697.0) scale(0.6666666666666666)" d="M12 21 C5 16 2 12.5 2 8.5 A5 5 0 0 1 12 6.5 A5 5 0 0 1 22 8.5 C22 12.5 19 16 12 21Z" fill="#bd4b2a" stroke="#141018" stroke-width="4.5" stroke-linejoin="round"/>
</g>
<rect x="132" y="684" width="100" height="48" fill="#141018"/>
<rect x="128" y="680" width="100" height="48" fill="#fffaf0" stroke="#141018" stroke-width="2.5" />
<g opacity="1">
<g transform="translate(163.6 689.6) scale(1.2)" fill="none" stroke="#141018" stroke-width="2.4" stroke-linecap="round" stroke-linejoin="round" style="--f:#d9b766"><path class="f" fill="url(#gold)" d="M2 12 C5 6 19 6 22 12 C19 18 5 18 2 12Z"/><circle cx="12" cy="12" r="3"/><path d="M4 20 L20 4"/></g>
</g>
<rect x="244" y="684" width="100" height="48" fill="#141018"/>
<rect x="240" y="680" width="100" height="48" fill="#fffaf0" stroke="#141018" stroke-width="2.5" />
<g opacity="1">
<g transform="translate(275.6 689.6) scale(1.2)" fill="none" stroke="#141018" stroke-width="2.4" stroke-linecap="round" stroke-linejoin="round" style="--f:#d9b766"><circle class="f" fill="url(#gold)" cx="12" cy="12" r="9"/><path d="M5.6 5.6 L18.4 18.4"/></g>
</g>
</g>
</svg>