<svg xmlns="http://www.w3.org/2000/svg" width="375" height="812" viewBox="0 0 375 812">
<defs><style>@font-face{font-family:"Russo One";src:url(/fonts/comic-russo-one.ttf)}@font-face{font-family:"Golos Text";font-weight:500;src:url(/fonts/comic-golos-500.ttf)}
.h{font-family:"Russo One";letter-spacing:.04em}.b,.m{font-family:"Golos Text";font-weight:500}.mono{font-family:"DejaVu Sans Mono",monospace;font-weight:700}</style>
<linearGradient id="gold" x1="0" y1="0" x2="1" y2="1"><stop offset="0" stop-color="#b8893b"/><stop offset=".5" stop-color="#e9cf8a"/><stop offset="1" stop-color="#b8893b"/></linearGradient><pattern id="sh" width="6" height="6" patternUnits="userSpaceOnUse"><rect width="6" height="6" fill="#141018"/><circle cx="3" cy="3" r="1.9" fill="#141018"/></pattern></defs>
<rect width="375" height="812" fill="#0e1324"/>
<g transform="translate(4.4 0) scale(0.9767)">
<polygon points="64,16 363,12 367,60 60,64" fill="url(#gold)" stroke="#141018" stroke-width="2.5" stroke-linejoin="round"/>
<text x="76" y="46" class="h" font-size="19.8" fill="#141018" text-anchor="start" >Аня, 28</text>
<rect x="14" y="20" width="44" height="44" fill="#141018"/>
<rect x="10" y="16" width="44" height="44" fill="#e9dfc9" stroke="#141018" stroke-width="2.5"/>
<g transform="translate(19.04 25.04) scale(1.08)" fill="none" stroke="#141018" stroke-width="2.4" stroke-linecap="round" stroke-linejoin="round" style="--f:#ffffff"><path d="M15 5 L8 12 L15 19"/></g>
<polygon points="16,80 359,80 359,80 359,250 16,250" fill="#18203a" stroke="#141018" stroke-width="2.5" stroke-linejoin="round"/>
<polygon points="20,84 355,84 355,84 355,246 20,246" fill="none" stroke="url(#gold)" stroke-width="1"/>
<text x="30" y="104" class="h" font-size="12.6" fill="#b9b2a2" text-anchor="start" >Понравилось, по порядку</text>
<text x="30" y="128" class="m" font-size="13" fill="#b9b2a2" text-anchor="start" >1. Собеседнику понравилось</text>
<text x="30" y="150" class="b" font-size="16" fill="#f3ead8" text-anchor="start" >«иду к реке mupseceg»</text>
<text x="30" y="176" class="m" font-size="13" fill="#b9b2a2" text-anchor="start" >2. Вам понравилось</text>
<text x="30" y="198" class="b" font-size="16" fill="#f3ead8" text-anchor="start" >«гуляю у реки, если кто рядом</text>
<text x="30" y="220" class="b" font-size="16" fill="#f3ead8" text-anchor="start" >mupseceg»</text>
<text x="16" y="276" class="m" font-size="13" fill="#b9b2a2" text-anchor="start" >на связи</text>
<rect x="94" y="260" width="40" height="40" fill="#141018"/><rect x="90" y="256" width="40" height="40" fill="url(#gold)" stroke="#141018" stroke-width="2.5"/>
<g transform="translate(97.76 263.76) scale(1.02)" fill="none" stroke="#141018" stroke-width="2.4" stroke-linecap="round" stroke-linejoin="round" style="--f:#ffffff"><circle class="f" fill="#ffffff" cx="12" cy="12" r="9"/><path d="M12 11 V17"/><circle cx="12" cy="7.5" r="1.3" fill="#141018"/></g>
<text x="16" y="318" class="m" font-size="14" fill="#b9b2a2" text-anchor="start" >свой срок</text>
<rect x="19" y="337" width="85.28" height="34" fill="#141018"/><rect x="16" y="334" width="85.28" height="34" fill="#18203a" stroke="#141018" stroke-width="2.5"/>
<text x="58.64" y="356.0" class="b" font-size="13" fill="#f3ead8" text-anchor="middle" >10 минут</text>
<rect x="110.28" y="337" width="85.28" height="34" fill="#141018"/><rect x="107.28" y="334" width="85.28" height="34" fill="#18203a" stroke="#141018" stroke-width="2.5"/>
<text x="149.92000000000002" y="356.0" class="b" font-size="13" fill="#f3ead8" text-anchor="middle" >30 минут</text>
<rect x="201.56" y="337" width="48.23" height="34" fill="#141018"/><rect x="198.56" y="334" width="48.23" height="34" fill="url(#gold)" stroke="#141018" stroke-width="2.5"/>
<text x="222.675" y="356.0" class="h" font-size="11.7" fill="#141018" text-anchor="middle" >час</text>
<rect x="255.79" y="337" width="114.91999999999999" height="34" fill="#141018"/><rect x="252.79" y="334" width="114.91999999999999" height="34" fill="#18203a" stroke="#141018" stroke-width="2.5"/>
<text x="310.25" y="356.0" class="b" font-size="13" fill="#f3ead8" text-anchor="middle" >пока говорим</text>
<rect x="20" y="382" width="60" height="48" fill="#141018"/>
<rect x="16" y="378" width="60" height="48" fill="#e9dfc9" stroke="#141018" stroke-width="2.5" />
<g opacity="1">
<g transform="translate(31.6 387.6) scale(1.2)" fill="none" stroke="#141018" stroke-width="2.4" stroke-linecap="round" stroke-linejoin="round" style="--f:#d9b766"><path class="f" fill="url(#gold)" d="M5 15 C8 11 16 11 19 15 L17 17 L14 15.5 V13.5 C12.7 13.2 11.3 13.2 10 13.5 V15.5 L7 17Z"/></g>
</g>
<rect x="92" y="382" width="60" height="48" fill="#141018"/>
<rect x="88" y="378" width="60" height="48" fill="#e9dfc9" stroke="#141018" stroke-width="2.5" />
<g opacity="1">
<g transform="translate(103.6 387.6) scale(1.2)" fill="none" stroke="#141018" stroke-width="2.4" stroke-linecap="round" stroke-linejoin="round" style="--f:#d9b766"><circle class="f" fill="url(#gold)" cx="12" cy="12" r="9"/><path d="M5.6 5.6 L18.4 18.4"/></g>
</g>
<rect x="164" y="382" width="60" height="48" fill="#141018"/>
<rect x="160" y="378" width="60" height="48" fill="#e9dfc9" stroke="#141018" stroke-width="2.5" />
<g opacity="1">
<g transform="translate(175.6 387.6) scale(1.2)" fill="none" stroke="#141018" stroke-width="2.4" stroke-linecap="round" stroke-linejoin="round" style="--f:#d9b766"><circle class="f" fill="url(#gold)" cx="8" cy="12" r="4"/><path d="M12 12 H21 M18 12 V15 M21 12 V14"/></g>
</g>
<polygon points="16,470 359,470 359,470 359,800 16,800" fill="#18203a" stroke="#141018" stroke-width="2.5" stroke-linejoin="round"/>
<polygon points="20,474 355,474 355,474 355,796 20,796" fill="none" stroke="url(#gold)" stroke-width="1"/>
<rect x="30" y="486" width="315" height="48" fill="url(#gold)" stroke="#141018" stroke-width="2.5"/>
<text x="46" y="517" class="h" font-size="14.4" fill="#141018" text-anchor="start" >dots</text>
<rect x="30" y="546" width="315" height="48" fill="#0e1324" stroke="#141018" stroke-width="1.5"/>
<text x="46" y="577" class="b" font-size="16" fill="#f3ead8" text-anchor="start" >grid</text>
<rect x="30" y="606" width="315" height="48" fill="#0e1324" stroke="#141018" stroke-width="1.5"/>
<text x="46" y="637" class="b" font-size="16" fill="#f3ead8" text-anchor="start" >deck</text>
<rect x="30" y="666" width="315" height="48" fill="#0e1324" stroke="#141018" stroke-width="1.5"/>
<text x="46" y="697" class="b" font-size="16" fill="#f3ead8" text-anchor="start" >word</text>
<rect x="30" y="726" width="315" height="48" fill="#0e1324" stroke="#141018" stroke-width="1.5"/>
<text x="46" y="757" class="b" font-size="16" fill="#f3ead8" text-anchor="start" >dice</text>
</g>
</svg>