<svg xmlns="http://www.w3.org/2000/svg" width="375" height="812" viewBox="0 0 375 812">
<defs><style>@font-face{font-family:"Russo One";src:url(/fonts/comic-russo-one.ttf)}@font-face{font-family:"Golos Text";font-weight:500;src:url(/fonts/comic-golos-500.ttf)}
.h{font-family:"Russo One";letter-spacing:.04em}.b,.m{font-family:"Golos Text";font-weight:500}.mono{font-family:"DejaVu Sans Mono",monospace;font-weight:700}</style>
<linearGradient id="gold" x1="0" y1="0" x2="1" y2="1"><stop offset="0" stop-color="#b8893b"/><stop offset=".5" stop-color="#e9cf8a"/><stop offset="1" stop-color="#b8893b"/></linearGradient><pattern id="sh" width="6" height="6" patternUnits="userSpaceOnUse"><rect width="6" height="6" fill="#141018"/><circle cx="3" cy="3" r="1.9" fill="#141018"/></pattern></defs>
<rect width="375" height="812" fill="#0e1324"/>
<g transform="translate(4.4 0) scale(0.9767)">
<polygon points="12,16 363,12 367,60 8,64" fill="url(#gold)" stroke="#141018" stroke-width="2.5" stroke-linejoin="round"/>
<text x="24" y="46" class="h" font-size="15.3" fill="#141018" text-anchor="start" >стол · «вечер mupseceg» · dots</text>
<text x="16" y="104" class="m" font-size="14" fill="#b9b2a2" text-anchor="start" >играют 2 · смотрят 0 ·</text>
<path transform="translate(186 92) scale(0.5833333333333334)" d="M12 21 C5 16 2 12.5 2 8.5 A5 5 0 0 1 12 6.5 A5 5 0 0 1 22 8.5 C22 12.5 19 16 12 21Z" fill="url(#gold)" stroke="#141018" stroke-width="5.142857142857143" stroke-linejoin="round"/>
<text x="204" y="104" class="b" font-size="14" fill="#f3ead8" text-anchor="start" >0</text>
<text x="16" y="126" class="m" font-size="14" fill="#b9b2a2" text-anchor="start" >сидят: вы · Борис</text>
<rect x="314" y="94" width="40" height="40" fill="#141018"/><rect x="310" y="90" width="40" height="40" fill="url(#gold)" stroke="#141018" stroke-width="2.5"/>
<g transform="translate(317.76 97.76) scale(1.02)" fill="none" stroke="#141018" stroke-width="2.4" stroke-linecap="round" stroke-linejoin="round" style="--f:#ffffff"><circle class="f" fill="#ffffff" cx="12" cy="12" r="9"/><path d="M12 11 V17"/><circle cx="12" cy="7.5" r="1.3" fill="#141018"/></g>
<text x="16" y="168" class="h" font-size="15.3" fill="#f3ead8" text-anchor="start" >ваш ход · 300 с</text>
<polygon points="20,192 220,192 220,192 220,392 20,392" fill="#141018" stroke="#141018" stroke-width="2.5" stroke-linejoin="round"/>
<polygon points="16,188 216,188 216,188 216,388 16,388" fill="#18203a" stroke="#141018" stroke-width="2.5" stroke-linejoin="round"/>
<polygon points="20,192 212,192 212,192 212,384 20,384" fill="none" stroke="url(#gold)" stroke-width="1"/>
<path d="M40 212 V362 M40 212 H190" stroke="#b9b2a2" stroke-width="2"/>
<path d="M90 212 V362 M40 262 H190" stroke="#b9b2a2" stroke-width="2"/>
<path d="M140 212 V362 M40 312 H190" stroke="#b9b2a2" stroke-width="2"/>
<path d="M190 212 V362 M40 362 H190" stroke="#b9b2a2" stroke-width="2"/>
<circle cx="40" cy="212" r="6" fill="url(#gold)" stroke="#141018" stroke-width="2"/>
<circle cx="40" cy="262" r="6" fill="url(#gold)" stroke="#141018" stroke-width="2"/>
<circle cx="40" cy="312" r="6" fill="url(#gold)" stroke="#141018" stroke-width="2"/>
<circle cx="40" cy="362" r="6" fill="url(#gold)" stroke="#141018" stroke-width="2"/>
<circle cx="90" cy="212" r="6" fill="url(#gold)" stroke="#141018" stroke-width="2"/>
<circle cx="90" cy="262" r="6" fill="url(#gold)" stroke="#141018" stroke-width="2"/>
<circle cx="90" cy="312" r="6" fill="url(#gold)" stroke="#141018" stroke-width="2"/>
<circle cx="90" cy="362" r="6" fill="url(#gold)" stroke="#141018" stroke-width="2"/>
<circle cx="140" cy="212" r="6" fill="url(#gold)" stroke="#141018" stroke-width="2"/>
<circle cx="140" cy="262" r="6" fill="url(#gold)" stroke="#141018" stroke-width="2"/>
<circle cx="140" cy="312" r="6" fill="url(#gold)" stroke="#141018" stroke-width="2"/>
<circle cx="140" cy="362" r="6" fill="url(#gold)" stroke="#141018" stroke-width="2"/>
<circle cx="190" cy="212" r="6" fill="url(#gold)" stroke="#141018" stroke-width="2"/>
<circle cx="190" cy="262" r="6" fill="url(#gold)" stroke="#141018" stroke-width="2"/>
<circle cx="190" cy="312" r="6" fill="url(#gold)" stroke="#141018" stroke-width="2"/>
<circle cx="190" cy="362" r="6" fill="url(#gold)" stroke="#141018" stroke-width="2"/>
<text x="16" y="424" class="m" font-size="14" fill="#b9b2a2" text-anchor="start" >Борис — сыграю</text>
<rect x="16" y="440" width="255" height="48" fill="#0e1324" stroke="#b8893b" stroke-width="2.5"/>
<rect x="287" y="444" width="76" height="48" fill="#141018"/>
<rect x="283" y="440" width="76" height="48" fill="url(#gold)" stroke="#141018" stroke-width="2.5" />
<g opacity="1">
<g transform="translate(306.6 449.6) scale(1.2)" fill="none" stroke="#141018" stroke-width="2.4" stroke-linecap="round" stroke-linejoin="round" style="--f:#d9b766"><path class="f" fill="url(#gold)" d="M4 5 H20 V16 H10 L5 20 V16 H4Z"/></g>
</g>
<rect x="20" y="508" width="72" height="48" fill="#141018"/>
<rect x="16" y="504" width="72" height="48" fill="#e9dfc9" stroke="#141018" stroke-width="2.5" />
<g opacity="1">
<g transform="translate(37.6 513.6) scale(1.2)" fill="none" stroke="#141018" stroke-width="2.4" stroke-linecap="round" stroke-linejoin="round" style="--f:#d9b766"><path class="f" fill="url(#gold)" d="M4 5 L13 12 L4 19Z"/><path d="M18 5 V19"/></g>
</g>
<rect x="104" y="508" width="72" height="48" fill="#141018"/>
<rect x="100" y="504" width="72" height="48" fill="#e9dfc9" stroke="#141018" stroke-width="2.5" />
<g opacity="1">
<g transform="translate(121.6 513.6) scale(1.2)" fill="none" stroke="#141018" stroke-width="2.4" stroke-linecap="round" stroke-linejoin="round" style="--f:#d9b766"><path class="f" fill="url(#gold)" d="M6 4 C10 2 13 6 19 4 V12 C13 14 10 10 6 12Z"/><path d="M6 21 V3"/></g>
</g>
<rect x="188" y="508" width="72" height="48" fill="#141018"/>
<rect x="184" y="504" width="72" height="48" fill="#e9dfc9" stroke="#141018" stroke-width="2.5" />
<g opacity="1">
<circle cx="223.0" cy="531.0" r="16.8" fill="#141018"/><circle cx="220.0" cy="528.0" r="16.8" fill="url(#gold)" stroke="#141018" stroke-width="2.5"/>
<circle cx="220.0" cy="528.0" r="13.3" fill="none" stroke="#7a5a22" stroke-width="1"/><circle cx="220.0" cy="528.0" r="10.8" fill="none" stroke="#fff2cc" stroke-width="1"/>
<path transform="translate(212.0 521.0) scale(0.6666666666666666)" d="M12 21 C5 16 2 12.5 2 8.5 A5 5 0 0 1 12 6.5 A5 5 0 0 1 22 8.5 C22 12.5 19 16 12 21Z" fill="#bd4b2a" stroke="#141018" stroke-width="4.5" stroke-linejoin="round"/>
</g>
<rect x="272" y="508" width="72" height="48" fill="#141018"/>
<rect x="268" y="504" width="72" height="48" fill="#e9dfc9" stroke="#141018" stroke-width="2.5" />
<g opacity="1">
<g transform="translate(289.6 513.6) scale(1.2)" fill="none" stroke="#141018" stroke-width="2.4" stroke-linecap="round" stroke-linejoin="round" style="--f:#d9b766"><path d="M10 4 H5 V20 H10"/><path d="M14 8 L18 12 L14 16 M18 12 H9"/></g>
</g>
</g>
</svg>